<svg version="1.1" id="Layer_1" xmlns="http://www.w3.org/2000/svg" xmlns:xlink="http://www.w3.org/1999/xlink" x="0px" y="0px" width="128" viewBox="0 0 128 128" enable-background="new 0 0 128 128" xml:space="preserve" height="128"><metadata><?xpacket begin="" id="W5M0MpCehiHzreSzNTczkc9d"?><x:xmpmeta xmlns:x="adobe:ns:meta/" x:xmptk="XMP Core 6.0.0"><rdf:RDF xmlns:rdf="http://www.w3.org/1999/02/22-rdf-syntax-ns#"><rdf:Description rdf:about="" xmlns:xmp="http://ns.adobe.com/xap/1.0/" xmlns:xmpMM="http://ns.adobe.com/xap/1.0/mm/" xmlns:dc="http://purl.org/dc/elements/1.1/" xmlns:dcterms="http://purl.org/dc/terms/" xmpMM:DocumentID="xmp.did:cb9f5498-bb58-4572-8043-8c369e6bfb9b" xmpMM:InstanceID="xmp.iid:cb9f5498-bb58-4572-8043-8c369e6bfb9b" dcterms:provenance="https://cai-manifests.adobe.com/manifests/urn-c2pa-d8c67caf-ae77-4bd1-8089-4e95dbcd327e-adobe"> </rdf:Description></rdf:RDF></x:xmpmeta>
<?xpacket end="w"?></metadata>
<path fill="#F8FBFB" opacity="1.000000" stroke="none" d="
M1.000000,69.000000 
	C1.000000,46.372276 1.000000,23.744555 1.000000,1.058416 
	C43.554352,1.058416 86.108803,1.058416 129.000000,1.058416 
	C129.000000,20.352926 129.000000,39.707806 128.648163,59.492920 
	C126.565247,59.282757 124.834160,58.642357 123.085098,57.590733 
	C125.426903,49.831635 122.192703,39.942348 116.610527,37.437057 
	C123.079903,49.393211 121.201355,57.719673 109.882324,65.542404 
	C100.729141,71.868286 91.358360,77.879303 81.757935,83.889938 
	C79.695435,81.831131 77.959114,79.912369 76.059372,77.666260 
	C71.333679,73.825050 69.745491,74.113892 66.570030,79.244110 
	C65.308968,81.081818 64.495079,82.899437 63.171444,84.197144 
	C61.687363,85.652138 59.742180,86.636810 57.588619,87.907196 
	C56.129429,88.375244 55.079239,88.762215 54.029053,89.149193 
	C54.754154,90.799500 55.479259,92.449806 56.490986,94.752449 
	C55.904560,95.402573 54.736450,96.697578 53.207329,97.993439 
	C50.889114,99.321327 48.931911,100.648346 46.681801,102.000877 
	C46.193905,102.047829 45.998905,102.069283 45.585445,102.081367 
	C45.366985,102.071999 44.990845,101.848900 44.855137,101.654518 
	C44.487560,101.227089 44.208836,101.087769 43.540253,100.885818 
	C41.466904,101.175575 39.736553,101.621696 38.006203,102.067818 
	C38.439404,103.432785 38.793270,105.919807 39.320358,105.957077 
	C41.058552,106.079987 42.905441,105.442955 44.609772,104.821289 
	C45.162380,104.619720 45.404594,103.567184 46.044025,102.838638 
	C46.538612,102.523697 46.777958,102.274002 47.394707,102.018280 
	C49.838772,101.041206 51.905430,100.070160 54.308796,99.009659 
	C56.430649,99.004440 58.215794,99.088699 60.000702,99.555817 
	C59.999527,100.959717 59.998592,101.980743 59.782646,103.109352 
	C59.297607,103.411865 59.113552,103.668465 59.008469,103.993378 
	C59.001461,104.000015 58.989460,104.015152 58.645065,104.068260 
	C57.864643,105.340164 57.428608,106.558960 56.681633,107.922920 
	C53.263268,110.502182 53.922398,112.522408 57.267513,114.472076 
	C58.314785,114.443649 59.146839,114.214279 59.988640,113.992455 
	C59.998394,114.000000 59.984211,113.983459 60.239449,113.990654 
	C60.664906,113.996918 60.835133,113.995987 61.351971,114.059555 
	C62.799313,116.360512 63.900043,118.596954 64.568336,120.910721 
	C62.090961,120.932648 60.046017,120.877266 57.952499,120.531662 
	C55.954521,120.154182 54.005123,120.066910 51.647285,119.965210 
	C49.154171,119.563530 47.069496,119.176285 44.859314,118.608063 
	C44.522133,118.209129 44.267254,118.070717 43.583935,117.978989 
	C41.473610,117.652931 39.748512,117.359756 37.974686,116.697235 
	C36.547230,113.206810 34.418686,113.440987 31.626129,114.959953 
	C28.719929,113.857231 24.850880,114.023140 26.540247,109.226173 
	C26.795359,108.501785 25.247314,107.150024 24.547123,106.079445 
	C23.801485,104.939384 23.072216,103.788605 22.363899,102.441040 
	C22.122143,101.630913 21.852282,101.022240 21.412664,100.124191 
	C19.474350,97.557846 17.705791,95.280891 15.884631,92.654015 
	C14.169951,88.487755 12.176724,84.777863 10.909091,80.834717 
	C7.380539,69.858665 8.174265,59.114223 11.656092,48.026497 
	C18.751886,25.430250 45.144794,8.941694 67.419212,10.017206 
	C74.245865,10.346828 81.068230,10.765429 87.892555,11.143283 
	C84.814194,8.900299 81.347351,6.795678 77.623001,6.128489 
	C66.104156,4.064979 54.560608,4.207893 43.328693,8.007347 
	C24.666620,14.320226 11.289597,26.385553 6.153499,45.620617 
	C3.909478,54.024635 4.499739,63.185459 3.584382,71.767990 
	C2.577242,70.688911 1.788621,69.844460 1.000000,69.000000 
M34.291729,83.624016 
	C36.181416,83.372719 38.071106,83.121422 40.655716,83.003204 
	C42.132393,82.444054 43.609070,81.884895 45.780056,81.143082 
	C49.246143,77.794502 52.712231,74.445923 56.789120,70.763351 
	C61.454830,66.776871 66.338120,63.014923 70.736588,58.752663 
	C77.799820,51.908165 77.463043,38.996368 69.148979,33.893921 
	C63.491928,30.422115 56.863155,29.629278 50.602005,31.716747 
	C36.421783,36.444431 26.269796,46.043953 20.658407,59.830734 
	C16.017107,71.234070 22.941004,82.430176 34.291729,83.624016 
M95.982742,36.464146 
	C95.495308,36.917759 95.045280,37.421448 94.514931,37.817612 
	C82.964233,46.445816 82.662148,58.626606 92.344589,68.680267 
	C94.072556,70.474480 95.888496,72.312027 97.831474,68.859879 
	C87.839485,60.588680 86.527588,48.808376 98.049522,41.254318 
	C103.706215,37.545658 110.223465,34.227501 111.536438,25.957609 
	C110.940384,25.493090 109.840523,24.635937 108.740654,23.778786 
	C108.964638,24.273670 109.188622,24.768555 109.412598,25.263439 
	C105.112938,28.825504 100.813271,32.387569 95.982742,36.464146 
M109.395920,54.176266 
	C111.633667,54.010445 113.871414,53.844624 117.356094,53.586403 
	C111.485535,49.923836 95.327789,50.679657 93.573700,53.787971 
	C93.885841,53.892319 94.197159,54.084820 94.510254,54.087776 
	C99.147987,54.131523 103.785957,54.150131 109.395920,54.176266 
M80.060852,23.513308 
	C78.731834,21.992908 77.630882,20.022146 75.960327,19.176184 
	C75.302155,18.842886 72.582993,20.815207 72.247009,22.111938 
	C71.918686,23.379099 73.517929,26.454027 74.120392,26.414917 
	C76.131493,26.284365 78.075058,25.113337 80.060852,23.513308 
M104.693863,46.033516 
	C108.369026,46.033516 112.044189,46.033516 116.271004,46.033516 
	C112.936813,41.778385 101.534744,41.997036 98.214020,46.033012 
	C100.295441,46.033012 102.036697,46.033012 104.693863,46.033516 
M102.520172,59.946999 
	C99.953751,59.946999 97.387321,59.946999 94.469376,59.946999 
	C97.406860,64.313797 107.883614,64.095284 110.474442,59.947498 
	C108.040771,59.947498 105.738708,59.947498 102.520172,59.946999 
M89.663261,29.881258 
	C88.133072,30.134556 86.602875,30.387856 85.072685,30.641155 
	C85.313255,31.870068 85.151184,33.660847 85.891975,34.191715 
	C86.915855,34.925446 88.619965,34.709957 90.032753,34.900990 
	C90.069565,33.445450 90.106377,31.989908 89.663261,29.881258 
z"></path>
<path fill="#FAFCFC" opacity="1.000000" stroke="none" d="
M1.000000,69.468658 
	C1.788621,69.844460 2.577242,70.688911 3.667804,72.012741 
	C4.025800,72.830002 4.081856,73.167908 4.103281,73.949089 
	C4.685554,76.261543 5.302458,78.130722 6.144513,80.211212 
	C6.614235,81.191498 6.858804,81.960464 7.051023,83.093094 
	C5.805560,86.267288 6.173741,88.123314 9.918510,88.295944 
	C10.715580,89.698090 11.371234,90.805817 12.121544,92.145622 
	C12.475062,92.580154 12.733925,92.782608 13.000177,92.989799 
	C13.007566,92.994530 13.013371,93.011086 13.076065,93.198746 
	C13.261536,93.630775 13.443415,93.817619 13.792244,94.193237 
	C13.936749,94.614990 13.973404,94.790451 14.118802,95.191597 
	C14.497383,95.605385 14.767221,95.793503 15.017895,95.991058 
	C14.998729,96.000496 15.018264,95.962471 15.125409,96.187683 
	C15.437394,96.694725 15.709438,96.875359 16.024265,96.977249 
	C15.999843,96.999695 16.045601,96.951317 16.135046,97.175110 
	C16.405851,97.682022 16.657330,97.872681 17.002560,97.974945 
	C17.026192,97.979034 17.028528,98.026939 17.120140,98.234047 
	C17.386898,98.701530 17.622772,98.882988 18.163113,99.098434 
	C18.605757,99.502213 18.804663,99.793091 19.116392,100.285202 
	C19.430187,100.734291 19.684753,100.899628 19.999754,100.987305 
	C20.006590,100.992134 20.017960,101.004402 20.125671,101.222908 
	C20.436342,101.712730 20.701279,101.892975 21.014259,101.991653 
	C21.000326,102.001167 21.017256,101.972351 21.156141,102.204727 
	C21.627249,102.549805 21.959469,102.662498 22.282402,102.735268 
	C22.273111,102.695343 22.335796,102.642509 22.335796,102.642509 
	C23.072216,103.788605 23.801485,104.939384 24.547123,106.079445 
	C25.247314,107.150024 26.795359,108.501785 26.540247,109.226173 
	C24.850880,114.023140 28.719929,113.857231 31.737621,115.177818 
	C32.416889,115.710083 32.677387,115.899597 33.005550,116.387787 
	C34.641815,121.928879 35.659222,122.242462 39.457943,118.735481 
	C40.191025,118.953629 40.605324,119.093636 41.146633,119.410034 
	C41.486404,119.797012 41.739738,119.930756 42.286491,120.020157 
	C42.699482,120.109573 42.859615,120.166504 43.145821,120.401215 
	C43.484375,120.791420 43.738205,120.925674 44.017689,120.992332 
	C44.001987,121.002914 44.017887,120.969025 44.046402,121.315308 
	C44.619213,122.686119 45.163506,123.710648 46.213539,125.687119 
	C46.625786,123.749771 46.803467,122.914764 47.351372,122.059486 
	C48.460945,122.067314 49.200298,122.095413 49.964272,122.319489 
	C49.988892,122.515472 50.035137,122.907799 50.066784,123.232574 
	C51.158577,123.664917 52.218727,123.772499 53.570793,123.897064 
	C54.241386,124.006485 54.620056,124.098923 55.060467,124.508537 
	C56.706181,126.682640 58.303864,128.009918 60.480701,124.956306 
	C72.000900,125.767952 82.608742,123.700043 93.167221,119.916176 
	C93.639557,119.705009 93.842171,119.501587 94.330353,119.127731 
	C99.099396,116.006973 103.519310,112.993340 108.159668,109.893822 
	C108.660950,109.639641 108.864784,109.404556 109.200058,108.941040 
	C109.641663,108.516945 109.874817,108.254517 110.298065,107.891754 
	C110.725098,107.614105 110.893105,107.386017 111.262833,106.895691 
	C114.082466,103.118607 116.631447,99.552963 119.367584,95.855202 
	C119.778709,95.499420 119.917198,95.231560 120.003922,94.580582 
	C120.666618,93.150612 121.295609,92.059563 122.248581,91.107086 
	C123.643845,91.099922 124.715126,90.954178 125.786407,90.808434 
	C124.847557,89.869095 123.908714,88.929749 122.997223,87.629990 
	C123.003952,86.547157 122.983330,85.824738 122.973572,84.729675 
	C123.206871,83.421410 123.113487,82.032257 123.702049,81.622429 
	C128.132263,78.537514 125.907448,74.314575 126.696861,70.630440 
	C126.065239,70.454010 125.433609,70.277588 124.801987,70.101166 
	C123.214722,75.421883 121.627449,80.742599 120.021957,86.032700 
	C120.003738,86.002090 120.063988,86.040138 119.678146,86.105560 
	C118.918091,87.307739 118.543869,88.444489 118.133598,89.862930 
	C117.681824,90.767265 117.266106,91.389900 116.658524,92.138405 
	C116.235168,92.481606 116.090088,92.746307 116.017319,93.029671 
	C116.003197,93.000946 116.057892,93.034203 115.668175,93.034798 
	C114.529099,94.382050 113.779732,95.728706 112.910812,97.388824 
	C109.226662,101.146156 105.662071,104.590034 101.877777,108.102402 
	C101.373749,108.314171 101.159149,108.527588 100.735352,108.907013 
	C99.989517,109.341675 99.522614,109.680458 98.842995,110.094284 
	C98.356598,110.318268 98.151337,110.532715 97.738396,110.915436 
	C96.997940,111.353500 96.533600,111.688820 95.853348,112.098236 
	C95.359734,112.321976 95.151520,112.538475 94.677338,112.958771 
	C92.252396,114.073105 90.162941,115.050484 87.783249,116.033524 
	C87.001099,116.299438 86.509163,116.559692 85.796234,116.903061 
	C85.575241,116.986160 85.105881,117.037964 84.886215,117.102951 
	C84.381180,117.306091 84.164551,117.515404 83.725601,117.874359 
	C83.036072,117.998764 82.637627,118.044678 81.995735,118.138496 
	C81.430290,118.311752 81.184334,118.524872 80.624489,118.898148 
	C78.201797,119.331139 76.169029,119.691750 73.908875,120.109566 
	C73.386192,120.303810 73.163780,120.516930 72.577179,120.899246 
	C69.760323,120.939384 67.380547,120.886398 65.000771,120.833405 
	C63.900043,118.596954 62.799313,116.360512 61.349575,113.810204 
	C61.000565,113.496346 60.985489,112.997566 60.991585,112.992126 
	C60.997684,112.986694 61.007092,112.973099 61.231812,112.857170 
	C61.625172,112.455605 61.793816,112.169968 61.955021,111.610748 
	C61.937115,110.972977 61.926651,110.608780 61.846184,109.982315 
	C61.507751,109.489098 61.239326,109.258141 60.985451,109.013596 
	C61.000000,109.000000 60.972057,109.028473 60.870667,108.802124 
	C60.570240,108.293663 60.304779,108.105011 59.727840,107.953522 
	C59.325329,107.839752 59.167866,107.782288 59.010864,107.353638 
	C59.004040,105.993355 58.996750,105.004250 58.989460,104.015152 
	C58.989460,104.015152 59.001461,104.000015 59.223289,103.886467 
	C59.712032,103.575165 59.896214,103.318115 59.997658,103.001770 
	C59.998592,101.980743 59.999527,100.959717 60.245815,99.482285 
	C60.686684,99.281380 60.882198,99.536880 61.247391,100.098267 
	C64.845001,102.272881 68.272934,104.141617 71.859055,106.278343 
	C72.358742,106.769279 72.700241,106.992226 73.277306,107.435623 
	C74.677971,107.451454 75.843071,107.246834 77.139450,106.833984 
	C77.470207,106.355659 77.721748,106.148895 78.295174,105.800415 
	C80.033981,104.732895 81.502960,103.870415 83.291916,103.153610 
	C84.995148,105.425179 86.378426,107.551064 87.769508,109.688965 
	C92.120903,107.833504 89.653687,105.423386 87.903496,102.846939 
	C87.681786,102.357155 87.466164,102.152122 87.049637,101.847313 
	C86.916008,101.676796 86.905563,101.243637 86.977997,100.882828 
	C89.145668,100.522026 91.240913,100.522026 93.336151,100.522026 
	C95.243317,100.345512 97.143105,100.553474 98.956329,100.247849 
	C99.731583,100.117172 100.326401,98.916008 101.283020,98.074257 
	C101.799171,97.617958 102.035522,97.288666 102.441002,96.834030 
	C102.809280,96.497841 102.932396,96.249321 102.976372,95.750229 
	C102.973267,95.537331 102.957428,95.111771 102.747528,94.813957 
	C97.840233,93.962288 93.142830,93.408432 87.569344,92.751282 
	C93.985794,88.403221 100.186600,90.570534 106.259308,91.309067 
	C106.496727,91.825539 106.740837,92.045975 107.155838,92.342339 
	C107.510002,92.280853 107.739540,92.092216 108.019539,91.681229 
	C108.180923,91.136711 108.405029,90.951500 109.130844,90.923012 
	C113.752129,88.657272 113.929146,86.627571 110.125031,82.701324 
	C110.028000,81.912651 110.015106,81.456055 110.342224,80.962425 
	C113.085808,80.030434 113.322678,78.985062 111.359352,77.098289 
	C110.210968,75.994690 109.702759,74.224937 109.078568,72.462502 
	C112.805450,69.436020 116.360336,66.701904 120.270744,63.923058 
	C121.073868,62.892757 121.521477,61.907200 121.999481,60.595810 
	C122.387611,59.513969 122.745346,58.757965 123.103088,58.001961 
	C124.834160,58.642357 126.565247,59.282757 128.648163,59.961578 
	C129.000000,82.949440 129.000000,105.898872 129.000000,128.924164 
	C86.333412,128.924164 43.666729,128.924164 1.000021,128.929169 
	C1.000000,125.275558 1.000000,121.616951 1.296644,117.439308 
	C1.909684,116.514351 2.226080,116.108429 2.542478,115.702515 
	C2.028319,115.468346 1.514160,115.234169 1.000000,115.000000 
	C1.000000,114.250000 1.000000,113.500000 1.358674,112.305260 
	C3.471919,109.946106 4.063973,108.203262 1.000000,107.000000 
	C1.000000,94.645775 1.000000,82.291542 1.000000,69.468658 
M81.708496,110.557381 
	C81.989014,110.289871 82.269531,110.022369 82.550049,109.754868 
	C82.439171,109.638748 82.237976,109.415611 82.230453,109.421959 
	C81.934593,109.671631 81.656357,109.942177 81.708496,110.557381 
z"></path>
<path fill="#F8FBFB" opacity="1.000000" stroke="none" d="
M1.000000,107.416664 
	C4.063973,108.203262 3.471919,109.946106 1.358674,111.930260 
	C1.000000,110.611107 1.000000,109.222221 1.000000,107.416664 
z"></path>
<path fill="#F8FBFB" opacity="1.000000" stroke="none" d="
M1.000000,115.333328 
	C1.514160,115.234169 2.028319,115.468346 2.542478,115.702515 
	C2.226080,116.108429 1.909684,116.514351 1.296644,116.960129 
	C1.000000,116.555557 1.000000,116.111107 1.000000,115.333328 
z"></path>
<path fill="#0C9482" opacity="1.000000" stroke="none" d="
M12.026888,91.913551 
	C11.371234,90.805817 10.715580,89.698090 9.894247,87.959793 
	C8.853504,85.795967 7.978439,84.262695 7.103374,82.729424 
	C6.858804,81.960464 6.614235,81.191498 6.165622,79.826187 
	C5.353689,77.321831 4.745800,75.413818 4.137912,73.505806 
	C4.081856,73.167908 4.025800,72.830002 3.886322,72.247353 
	C4.499739,63.185459 3.909478,54.024635 6.153499,45.620617 
	C11.289597,26.385553 24.666620,14.320226 43.328693,8.007347 
	C54.560608,4.207893 66.104156,4.064979 77.623001,6.128489 
	C81.347351,6.795678 84.814194,8.900299 87.892555,11.143283 
	C81.068230,10.765429 74.245865,10.346828 67.419212,10.017206 
	C45.144794,8.941694 18.751886,25.430250 11.656092,48.026497 
	C8.174265,59.114223 7.380539,69.858665 10.909091,80.834717 
	C12.176724,84.777863 14.169951,88.487755 15.527326,92.662903 
	C14.747478,93.057068 14.272335,93.092430 13.601275,93.098358 
	C13.405358,93.068924 13.013371,93.011086 13.013371,93.011086 
	C13.013371,93.011086 13.007566,92.994530 12.945864,92.733597 
	C12.598404,92.286285 12.312647,92.099922 12.026888,91.913551 
z"></path>
<path fill="#0F9683" opacity="1.000000" stroke="none" d="
M45.085747,81.325745 
	C43.609070,81.884895 42.132393,82.444054 40.060448,82.691635 
	C37.572418,82.613121 35.679657,82.846169 33.786892,83.079216 
	C22.941004,82.430176 16.017107,71.234070 20.658407,59.830734 
	C26.269796,46.043953 36.421783,36.444431 50.602005,31.716747 
	C56.863155,29.629278 63.491928,30.422115 69.148979,33.893921 
	C77.463043,38.996368 77.799820,51.908165 70.736588,58.752663 
	C66.338120,63.014923 61.454830,66.776871 56.195808,70.725067 
	C55.367458,70.032616 55.132423,69.378464 55.064011,68.444183 
	C59.405014,64.390564 63.697540,60.738197 67.722931,56.811951 
	C72.421692,52.228920 74.199371,46.096340 71.661514,41.634289 
	C68.798775,36.601021 64.146751,34.022327 58.148033,33.998928 
	C45.574497,33.949894 28.248013,47.317650 24.037720,60.810795 
	C20.805790,71.168488 22.883556,76.681488 32.198677,79.744385 
	C35.618423,80.868843 39.930702,79.278870 44.308960,79.051895 
	C45.093884,79.272499 45.405697,79.368294 45.690159,79.442917 
	C45.662807,79.421753 45.680328,79.354843 45.505981,79.839813 
	C45.249672,80.658440 45.167709,80.992088 45.085747,81.325745 
z"></path>
<path fill="#F4FAFA" opacity="1.000000" stroke="none" d="
M82.971947,103.007942 
	C81.502960,103.870415 80.033981,104.732895 78.290092,105.395599 
	C78.375000,102.359360 77.340530,100.473068 74.285233,101.128067 
	C71.925461,101.633957 70.097343,103.084198 71.700867,106.010361 
	C68.272934,104.141617 64.845001,102.272881 61.570942,100.000778 
	C60.882904,97.633568 60.040989,95.669708 59.429436,94.243202 
	C60.376068,92.618103 61.185459,91.228615 61.994854,89.839127 
	C60.662445,89.168121 59.330032,88.497124 57.997623,87.826118 
	C59.742180,86.636810 61.687363,85.652138 63.171444,84.197144 
	C64.495079,82.899437 65.308968,81.081818 66.669510,79.608765 
	C68.754272,84.855499 73.035408,79.180267 75.521111,82.577209 
	C75.842163,80.480019 76.032478,79.236816 76.222794,77.993607 
	C77.959114,79.912369 79.695435,81.831131 81.670425,84.275955 
	C78.748917,91.075836 79.106125,97.144302 82.971947,103.007942 
z"></path>
<path fill="#08162F" opacity="1.000000" stroke="none" d="
M83.291916,103.153610 
	C79.106125,97.144302 78.748917,91.075836 81.996597,84.416000 
	C91.358360,77.879303 100.729141,71.868286 109.882324,65.542404 
	C121.201355,57.719673 123.079903,49.393211 116.610527,37.437057 
	C122.192703,39.942348 125.426903,49.831635 123.085098,57.590736 
	C122.745346,58.757965 122.387611,59.513969 121.697296,60.710823 
	C120.881561,62.090382 120.398392,63.029087 119.915222,63.967796 
	C116.360336,66.701904 112.805450,69.436020 108.723709,72.550568 
	C101.266678,77.320923 93.943985,81.211678 87.528648,86.256317 
	C82.252533,90.405151 82.571747,95.791840 86.905563,101.243637 
	C86.905563,101.243637 86.916008,101.676796 87.029259,102.101608 
	C87.420624,102.704605 87.698730,102.882782 87.976845,103.060951 
	C89.653687,105.423386 92.120903,107.833504 87.769508,109.688965 
	C86.378426,107.551064 84.995148,105.425179 83.291916,103.153610 
z"></path>
<path fill="#081630" opacity="1.000000" stroke="none" d="
M50.035137,122.907791 
	C50.035137,122.907799 49.988892,122.515472 50.170769,122.036041 
	C51.002949,121.322754 51.653252,121.088905 52.709518,120.889755 
	C54.744015,120.890259 56.372543,120.856071 58.001076,120.821884 
	C60.046017,120.877266 62.090961,120.932648 64.568336,120.910721 
	C67.380547,120.886398 69.760323,120.939384 72.840485,120.938019 
	C73.739342,120.606560 73.937805,120.329460 74.136269,120.052361 
	C76.169029,119.691750 78.201797,119.331139 80.900986,118.947968 
	C81.791328,118.647133 82.015251,118.368866 82.239174,118.090591 
	C82.637627,118.044678 83.036072,117.998764 83.987213,117.930115 
	C84.728561,117.617577 84.917221,117.327774 85.105881,117.037964 
	C85.105881,117.037964 85.575241,116.986160 86.107811,116.975998 
	C87.118080,116.653175 87.595779,116.340515 88.073486,116.027863 
	C90.162941,115.050484 92.252396,114.073105 94.941437,113.010391 
	C95.717102,112.624756 95.893181,112.324448 96.069260,112.024139 
	C96.533600,111.688820 96.997940,111.353500 98.002739,110.973572 
	C98.714027,110.625717 98.884865,110.322472 99.055695,110.019241 
	C99.522614,109.680458 99.989517,109.341675 101.000443,108.963951 
	C101.728806,108.627983 101.913147,108.330956 102.097488,108.033920 
	C105.662071,104.590034 109.226662,101.146156 113.215172,97.267357 
	C114.445358,95.566360 115.251625,94.300285 116.057892,93.034203 
	C116.057892,93.034203 116.003197,93.000946 116.272217,92.960312 
	C116.644279,92.617302 116.747322,92.314919 116.850372,92.012535 
	C117.266106,91.389900 117.681824,90.767265 118.412994,89.645584 
	C119.173622,88.111069 119.618805,87.075607 120.063988,86.040138 
	C120.063988,86.040138 120.003738,86.002090 120.342026,85.989571 
	C121.441109,85.685478 122.201912,85.393898 122.962715,85.102325 
	C122.983330,85.824738 123.003952,86.547157 122.689056,87.780487 
	C122.210564,89.183769 122.067581,90.076149 121.924606,90.968521 
	C121.295609,92.059563 120.666618,93.150612 119.748367,94.659897 
	C119.366211,95.381210 119.273323,95.684265 119.180435,95.987320 
	C116.631447,99.552963 114.082466,103.118607 110.994110,106.879028 
	C110.339149,107.379898 110.223557,107.685997 110.107971,107.992088 
	C109.874817,108.254517 109.641663,108.516945 108.929436,108.926796 
	C108.279984,109.376045 108.109604,109.677879 107.939232,109.979706 
	C103.519310,112.993340 99.099396,116.006973 94.081268,119.085617 
	C93.309052,119.429489 93.135056,119.708359 92.961060,119.987221 
	C82.608742,123.700043 72.000900,125.767952 60.232651,124.667770 
	C58.012192,124.313965 56.505459,124.252670 54.998726,124.191368 
	C54.620056,124.098923 54.241386,124.006485 53.378899,123.588806 
	C51.941769,123.144981 50.988453,123.026390 50.035137,122.907791 
z"></path>
<path fill="#09172F" opacity="1.000000" stroke="none" d="
M96.248177,36.206890 
	C100.813271,32.387569 105.112938,28.825504 109.412598,25.263439 
	C109.188622,24.768555 108.964638,24.273670 108.740654,23.778786 
	C109.840523,24.635937 110.940384,25.493090 111.536438,25.957609 
	C110.223465,34.227501 103.706215,37.545658 98.049522,41.254318 
	C86.527588,48.808376 87.839485,60.588680 97.831474,68.859879 
	C95.888496,72.312027 94.072556,70.474480 92.344589,68.680267 
	C82.662148,58.626606 82.964233,46.445816 94.514931,37.817612 
	C95.045280,37.421448 95.495308,36.917759 96.248177,36.206890 
z"></path>
<path fill="#32A18F" opacity="1.000000" stroke="none" d="
M108.909897,54.175476 
	C103.785957,54.150131 99.147987,54.131523 94.510254,54.087776 
	C94.197159,54.084820 93.885841,53.892319 93.574280,53.786240 
	C95.327789,50.679657 111.485535,49.923836 117.356094,53.586403 
	C113.871414,53.844624 111.633667,54.010445 108.909897,54.175476 
z"></path>
<path fill="#0B1930" opacity="1.000000" stroke="none" d="
M57.588619,87.907196 
	C59.330032,88.497124 60.662445,89.168121 61.994854,89.839127 
	C61.185459,91.228615 60.376068,92.618103 59.429436,94.243202 
	C60.040989,95.669708 60.882904,97.633568 61.401268,99.694901 
	C60.882198,99.536880 60.686684,99.281380 60.246056,99.099411 
	C58.215794,99.088699 56.430649,99.004440 54.111916,98.768021 
	C53.575001,98.408089 53.571667,98.200333 53.568336,97.992584 
	C54.736450,96.697578 55.904560,95.402573 56.490986,94.752449 
	C55.479259,92.449806 54.754154,90.799500 54.029053,89.149193 
	C55.079239,88.762215 56.129429,88.375244 57.588619,87.907196 
z"></path>
<path fill="#259380" opacity="1.000000" stroke="none" d="
M80.052673,23.927130 
	C78.075058,25.113337 76.131493,26.284365 74.120392,26.414917 
	C73.517929,26.454027 71.918686,23.379099 72.247009,22.111938 
	C72.582993,20.815207 75.302155,18.842886 75.960327,19.176184 
	C77.630882,20.022146 78.731834,21.992908 80.052673,23.927130 
z"></path>
<path fill="#239A88" opacity="1.000000" stroke="none" d="
M76.059380,77.666260 
	C76.032478,79.236816 75.842163,80.480019 75.521111,82.577209 
	C73.035408,79.180267 68.754272,84.855499 66.891739,79.359238 
	C69.745491,74.113892 71.333679,73.825050 76.059380,77.666260 
z"></path>
<path fill="#188C79" opacity="1.000000" stroke="none" d="
M104.235909,46.033264 
	C102.036697,46.033012 100.295441,46.033012 98.214020,46.033012 
	C101.534744,41.997036 112.936813,41.778385 116.271004,46.033516 
	C112.044189,46.033516 108.369026,46.033516 104.235909,46.033264 
z"></path>
<path fill="#139483" opacity="1.000000" stroke="none" d="
M54.897388,68.724304 
	C55.132423,69.378464 55.367458,70.032616 55.890408,70.892059 
	C52.712231,74.445923 49.246143,77.794502 45.432899,81.234413 
	C45.167709,80.992088 45.249672,80.658440 45.479996,79.867096 
	C45.628361,79.409416 45.717510,79.464081 45.717510,79.464081 
	C45.405697,79.368294 45.093884,79.272499 44.475323,78.748581 
	C47.744846,75.121735 51.321117,71.923019 54.897388,68.724304 
z"></path>
<path fill="#1C9382" opacity="1.000000" stroke="none" d="
M102.978409,59.947250 
	C105.738708,59.947498 108.040771,59.947498 110.474442,59.947498 
	C107.883614,64.095284 97.406860,64.313797 94.469376,59.946999 
	C97.387321,59.946999 99.953751,59.946999 102.978409,59.947250 
z"></path>
<path fill="#101A2C" opacity="1.000000" stroke="none" d="
M45.788780,102.903893 
	C45.404594,103.567184 45.162380,104.619720 44.609772,104.821289 
	C42.905441,105.442955 41.058552,106.079987 39.320358,105.957077 
	C38.793270,105.919807 38.439404,103.432785 38.006203,102.067818 
	C39.736553,101.621696 41.466904,101.175575 43.620575,101.143784 
	C44.359547,101.655045 44.675194,101.751968 44.990845,101.848900 
	C44.990845,101.848900 45.366985,102.071999 45.604187,102.285004 
	C45.841385,102.498016 45.788780,102.903893 45.788780,102.903893 
z"></path>
<path fill="#25927E" opacity="1.000000" stroke="none" d="
M61.916183,110.244591 
	C61.926651,110.608780 61.937115,110.972977 61.719257,111.715286 
	C61.329655,112.386642 61.168373,112.679871 61.007092,112.973099 
	C61.007092,112.973099 60.997684,112.986694 60.744850,113.058578 
	C60.322746,113.414795 60.153477,113.699127 59.984207,113.983459 
	C59.984211,113.983459 59.998394,114.000000 59.624130,114.042191 
	C58.517342,114.146629 57.784817,114.208885 57.052292,114.271133 
	C53.922398,112.522408 53.263268,110.502182 57.016815,107.987900 
	C58.112099,107.846756 58.561249,107.785789 59.010403,107.724823 
	C59.167866,107.782288 59.325329,107.839752 59.807159,108.197586 
	C60.411697,108.674789 60.691879,108.851631 60.972057,109.028473 
	C60.972057,109.028473 61.000000,109.000000 61.060738,109.274368 
	C61.386375,109.780693 61.651283,110.012642 61.916183,110.244591 
z"></path>
<path fill="#288D79" opacity="1.000000" stroke="none" d="
M89.903229,30.207813 
	C90.106377,31.989908 90.069565,33.445450 90.032753,34.900990 
	C88.619965,34.709957 86.915855,34.925446 85.891975,34.191715 
	C85.151184,33.660847 85.313255,31.870068 85.072685,30.641155 
	C86.602875,30.387856 88.133072,30.134556 89.903229,30.207813 
z"></path>
<path fill="#131F33" opacity="1.000000" stroke="none" d="
M52.303558,120.855057 
	C51.653252,121.088905 51.002949,121.322754 50.146149,121.840057 
	C49.200298,122.095413 48.460945,122.067314 47.124096,121.818558 
	C45.690361,121.388283 44.854126,121.178658 44.017887,120.969025 
	C44.017887,120.969025 44.001987,121.002914 43.934765,120.753189 
	C43.584942,120.410118 43.302345,120.316780 43.019749,120.223434 
	C42.859615,120.166504 42.699482,120.109573 42.202824,119.785583 
	C41.677868,119.144821 41.395641,119.049858 41.019623,119.233635 
	C40.605324,119.093636 40.191025,118.953629 39.355499,118.532883 
	C38.669838,118.092865 38.383846,117.999939 38.030937,117.748543 
	C37.985577,117.523720 38.023418,117.066582 38.023418,117.066582 
	C39.748512,117.359756 41.473610,117.652931 43.654518,118.225876 
	C44.401829,118.600121 44.693325,118.694580 44.984818,118.789047 
	C47.069496,119.176285 49.154171,119.563530 51.723457,120.180031 
	C52.208069,120.409286 52.303562,120.855064 52.303558,120.855057 
z"></path>
<path fill="#F4FAFA" opacity="1.000000" stroke="none" d="
M53.207329,97.993439 
	C53.571667,98.200333 53.575001,98.408089 53.775208,98.857483 
	C51.905430,100.070160 49.838772,101.041206 47.384930,102.005226 
	C46.997746,101.998199 46.974705,101.975372 46.974705,101.975372 
	C48.931911,100.648346 50.889114,99.321327 53.207329,97.993439 
z"></path>
<path fill="#F4FAFA" opacity="1.000000" stroke="none" d="
M37.974686,116.697235 
	C38.023418,117.066582 37.985577,117.523720 37.686443,117.726944 
	C35.924229,117.288910 34.461147,116.647659 32.998062,116.006409 
	C32.677387,115.899597 32.416889,115.710083 32.105080,115.220001 
	C34.418686,113.440987 36.547230,113.206810 37.974686,116.697235 
z"></path>
<path fill="#1E937F" opacity="1.000000" stroke="none" d="
M13.797193,93.127792 
	C14.272335,93.092430 14.747478,93.057068 15.579926,93.012817 
	C17.705791,95.280891 19.474350,97.557846 21.242233,100.283463 
	C21.241556,100.732109 20.925291,101.075089 20.698330,101.059082 
	C20.471367,101.043076 20.017960,101.004402 20.017960,101.004402 
	C20.017960,101.004402 20.006590,100.992134 19.923773,100.754173 
	C19.645390,100.210258 19.366261,100.066177 19.003569,100.083969 
	C18.804663,99.793091 18.605757,99.502213 18.115919,98.862579 
	C17.642891,98.215164 17.377403,98.052864 17.028528,98.026939 
	C17.028528,98.026939 17.026192,97.979034 16.946598,97.729225 
	C16.593204,97.303383 16.319405,97.127350 16.045601,96.951309 
	C16.045601,96.951317 15.999843,96.999695 15.946413,96.731964 
	C15.601411,96.296974 15.309837,96.129723 15.018264,95.962471 
	C15.018264,95.962471 14.998729,96.000496 14.936843,95.744247 
	C14.586658,95.313980 14.298358,95.139954 14.010059,94.965919 
	C13.973404,94.790451 13.936749,94.614990 13.848303,93.992393 
	C13.796513,93.545258 13.797193,93.127792 13.797193,93.127792 
z"></path>
<path fill="#F4FAFA" opacity="1.000000" stroke="none" d="
M52.709522,120.889755 
	C52.303562,120.855064 52.208069,120.409286 52.131897,120.194466 
	C54.005123,120.066910 55.954521,120.154182 57.952499,120.531662 
	C56.372543,120.856071 54.744015,120.890259 52.709522,120.889755 
z"></path>
<path fill="#139483" opacity="1.000000" stroke="none" d="
M34.039310,83.351616 
	C35.679657,82.846169 37.572418,82.613121 39.712990,82.625099 
	C38.071106,83.121422 36.181416,83.372719 34.039310,83.351616 
z"></path>
<path fill="#F4FAFA" opacity="1.000000" stroke="none" d="
M59.010864,107.353638 
	C58.561249,107.785789 58.112099,107.846756 57.327759,107.842743 
	C57.428608,106.558960 57.864643,105.340164 58.645065,104.068260 
	C58.996750,105.004250 59.004040,105.993355 59.010864,107.353638 
z"></path>
<path fill="#1E937F" opacity="1.000000" stroke="none" d="
M21.411987,100.572845 
	C21.852282,101.022240 22.122143,101.630913 22.363899,102.441040 
	C22.335796,102.642509 22.273111,102.695343 22.184210,102.473259 
	C21.735958,102.158234 21.376608,102.065292 21.017256,101.972351 
	C21.017256,101.972351 21.000326,102.001167 20.984039,101.765434 
	C20.967754,101.529701 20.925291,101.075089 20.925291,101.075089 
	C20.925291,101.075089 21.241556,100.732109 21.411987,100.572845 
z"></path>
<path fill="#F4FAFA" opacity="1.000000" stroke="none" d="
M57.267513,114.472076 
	C57.784817,114.208885 58.517342,114.146629 59.614380,114.034637 
	C59.146839,114.214279 58.314785,114.443649 57.267513,114.472076 
z"></path>
<path fill="#F4FAFA" opacity="1.000000" stroke="none" d="
M60.239445,113.990654 
	C60.153477,113.699127 60.322746,113.414795 60.738754,113.064018 
	C60.985489,112.997566 61.000565,113.496346 61.002960,113.745697 
	C60.835133,113.995987 60.664906,113.996918 60.239445,113.990654 
z"></path>
<path fill="#F4FAFA" opacity="1.000000" stroke="none" d="
M44.859314,118.608070 
	C44.693325,118.694580 44.401829,118.600121 44.039749,118.258759 
	C44.267254,118.070717 44.522133,118.209129 44.859314,118.608070 
z"></path>
<path fill="#F4FAFA" opacity="1.000000" stroke="none" d="
M44.855137,101.654518 
	C44.675194,101.751968 44.359547,101.655045 43.963573,101.300156 
	C44.208836,101.087769 44.487560,101.227089 44.855137,101.654518 
z"></path>
<path fill="#F4FAFA" opacity="1.000000" stroke="none" d="
M46.044022,102.838638 
	C45.788780,102.903893 45.841385,102.498016 45.822647,102.294373 
	C45.998905,102.069283 46.193905,102.047829 46.681801,102.000877 
	C46.974705,101.975372 46.997746,101.998199 47.007523,102.011253 
	C46.777958,102.274002 46.538612,102.523697 46.044022,102.838638 
z"></path>
<path fill="#F4FAFA" opacity="1.000000" stroke="none" d="
M59.782646,103.109352 
	C59.896214,103.318115 59.712032,103.575165 59.230293,103.879822 
	C59.113552,103.668465 59.297607,103.411865 59.782646,103.109352 
z"></path>
<path fill="#F8FBFB" opacity="1.000000" stroke="none" d="
M86.977997,100.882828 
	C82.571747,95.791840 82.252533,90.405151 87.528648,86.256317 
	C93.943985,81.211678 101.266678,77.320923 108.551697,72.842926 
	C109.702759,74.224937 110.210968,75.994690 111.359352,77.098289 
	C113.322678,78.985062 113.085808,80.030434 110.052513,80.789276 
	C108.578156,79.107277 107.733505,77.561378 106.888863,76.015480 
	C106.286491,76.126404 105.684113,76.237328 105.081734,76.348251 
	C105.193588,77.966026 105.292801,79.584785 105.419937,81.201363 
	C105.678551,84.489616 105.952248,87.776695 106.219734,91.064255 
	C100.186600,90.570534 93.985794,88.403221 87.569344,92.751282 
	C93.142830,93.408432 97.840233,93.962288 102.285675,94.764687 
	C97.126183,95.013229 92.218666,95.013229 87.311142,95.013229 
	C87.182938,95.505791 87.054733,95.998352 86.926521,96.490913 
	C88.315590,97.003242 89.677811,97.845833 91.099136,97.961395 
	C94.385277,98.228539 97.700058,98.143486 101.003220,98.201271 
	C100.326401,98.916008 99.731583,100.117172 98.956329,100.247849 
	C97.143105,100.553474 95.243317,100.345512 93.336151,100.522026 
	C91.240913,100.522026 89.145668,100.522026 86.977997,100.882828 
M92.246796,86.039330 
	C91.273727,86.797363 90.300659,87.555389 88.912048,88.637131 
	C94.846062,88.637131 99.850578,88.637131 104.855095,88.637131 
	C101.466530,84.576057 97.034401,86.663025 92.246796,86.039330 
z"></path>
<path fill="#F8FBFB" opacity="1.000000" stroke="none" d="
M122.973572,84.729675 
	C122.201912,85.393898 121.441109,85.685478 120.360245,86.020187 
	C121.627449,80.742599 123.214722,75.421883 124.801987,70.101166 
	C125.433609,70.277588 126.065239,70.454010 126.696861,70.630440 
	C125.907448,74.314575 128.132263,78.537514 123.702049,81.622429 
	C123.113487,82.032257 123.206871,83.421410 122.973572,84.729675 
z"></path>
<path fill="#139581" opacity="1.000000" stroke="none" d="
M106.259308,91.309067 
	C105.952248,87.776695 105.678551,84.489616 105.419937,81.201363 
	C105.292801,79.584785 105.193588,77.966026 105.081734,76.348251 
	C105.684113,76.237328 106.286491,76.126404 106.888863,76.015480 
	C107.733505,77.561378 108.578156,79.107277 109.712509,80.826324 
	C110.015106,81.456055 110.028000,81.912651 110.056793,83.108398 
	C109.629242,86.199448 109.185791,88.551346 108.742332,90.903244 
	C108.405029,90.951500 108.180923,91.136711 107.779724,91.743019 
	C107.489449,92.027153 107.031204,92.215179 107.031204,92.215179 
	C106.740837,92.045975 106.496727,91.825539 106.259308,91.309067 
z"></path>
<path fill="#198B7A" opacity="1.000000" stroke="none" d="
M101.283020,98.074265 
	C97.700058,98.143486 94.385277,98.228539 91.099136,97.961395 
	C89.677811,97.845833 88.315590,97.003242 86.926521,96.490913 
	C87.054733,95.998352 87.182938,95.505791 87.311142,95.013229 
	C92.218666,95.013229 97.126183,95.013229 102.495567,95.062500 
	C102.957428,95.111771 102.973267,95.537331 102.759354,95.838440 
	C102.224899,96.336273 102.133705,96.609550 102.271873,96.959373 
	C102.035522,97.288666 101.799171,97.617958 101.283020,98.074265 
z"></path>
<path fill="#1F8F7C" opacity="1.000000" stroke="none" d="
M71.859055,106.278343 
	C70.097343,103.084198 71.925461,101.633957 74.285233,101.128067 
	C77.340530,100.473068 78.375000,102.359360 78.020271,105.600647 
	C77.721748,106.148895 77.470207,106.355659 76.741447,106.838013 
	C75.155365,107.105240 74.098549,107.160202 73.041740,107.215172 
	C72.700241,106.992226 72.358742,106.769279 71.859055,106.278343 
z"></path>
<path fill="#F8FBFB" opacity="1.000000" stroke="none" d="
M109.130844,90.923012 
	C109.185791,88.551346 109.629242,86.199448 110.140930,83.440475 
	C113.929146,86.627571 113.752129,88.657272 109.130844,90.923012 
z"></path>
<path fill="#F8FBFB" opacity="1.000000" stroke="none" d="
M33.005550,116.387787 
	C34.461147,116.647659 35.924229,117.288910 37.731804,117.951767 
	C38.383846,117.999939 38.669838,118.092865 39.036716,118.454727 
	C35.659222,122.242462 34.641815,121.928879 33.005550,116.387787 
z"></path>
<path fill="#F8FBFB" opacity="1.000000" stroke="none" d="
M122.248581,91.107094 
	C122.067581,90.076149 122.210564,89.183769 122.661713,88.140900 
	C123.908714,88.929749 124.847557,89.869095 125.786407,90.808434 
	C124.715126,90.954178 123.643845,91.099922 122.248581,91.107094 
z"></path>
<path fill="#F8FBFB" opacity="1.000000" stroke="none" d="
M55.060467,124.508537 
	C56.505459,124.252670 58.012192,124.313965 59.766975,124.663803 
	C58.303864,128.009918 56.706181,126.682640 55.060467,124.508537 
z"></path>
<path fill="#F8FBFB" opacity="1.000000" stroke="none" d="
M7.051024,83.093094 
	C7.978439,84.262695 8.853504,85.795967 9.752831,87.665382 
	C6.173741,88.123314 5.805560,86.267288 7.051024,83.093094 
z"></path>
<path fill="#F8FBFB" opacity="1.000000" stroke="none" d="
M44.046402,121.315308 
	C44.854126,121.178658 45.690361,121.388283 46.753876,121.838837 
	C46.803467,122.914764 46.625786,123.749771 46.213539,125.687119 
	C45.163506,123.710648 44.619213,122.686119 44.046402,121.315308 
z"></path>
<path fill="#F8FBFB" opacity="1.000000" stroke="none" d="
M4.103281,73.949089 
	C4.745800,75.413818 5.353689,77.321831 5.940470,79.614868 
	C5.302458,78.130722 4.685554,76.261543 4.103281,73.949089 
z"></path>
<path fill="#F8FBFB" opacity="1.000000" stroke="none" d="
M115.668175,93.034798 
	C115.251625,94.300285 114.445358,95.566360 113.334732,96.953903 
	C113.779732,95.728706 114.529099,94.382050 115.668175,93.034798 
z"></path>
<path fill="#F8FBFB" opacity="1.000000" stroke="none" d="
M119.678146,86.105560 
	C119.618805,87.075607 119.173622,88.111069 118.449043,89.363892 
	C118.543869,88.444489 118.918091,87.307739 119.678146,86.105560 
z"></path>
<path fill="#F8FBFB" opacity="1.000000" stroke="none" d="
M50.066784,123.232567 
	C50.988453,123.026390 51.941769,123.144981 53.086979,123.571823 
	C52.218727,123.772499 51.158577,123.664917 50.066784,123.232567 
z"></path>
<path fill="#F8FBFB" opacity="1.000000" stroke="none" d="
M120.270744,63.923058 
	C120.398392,63.029087 120.881561,62.090382 121.666908,61.036659 
	C121.521477,61.907200 121.073868,62.892757 120.270744,63.923058 
z"></path>
<path fill="#F4FAFA" opacity="1.000000" stroke="none" d="
M73.277306,107.435623 
	C74.098549,107.160202 75.155365,107.105240 76.610168,107.046242 
	C75.843071,107.246834 74.677971,107.451454 73.277306,107.435623 
z"></path>
<path fill="#F8FBFB" opacity="1.000000" stroke="none" d="
M81.542160,110.383698 
	C81.656357,109.942177 81.934593,109.671631 82.230453,109.421959 
	C82.237976,109.415611 82.439171,109.638748 82.550049,109.754868 
	C82.269531,110.022369 81.989014,110.289871 81.542160,110.383698 
z"></path>
<path fill="#F8FBFB" opacity="1.000000" stroke="none" d="
M87.783257,116.033524 
	C87.595779,116.340515 87.118080,116.653175 86.328804,116.892891 
	C86.509163,116.559692 87.001099,116.299438 87.783257,116.033524 
z"></path>
<path fill="#F4FAFA" opacity="1.000000" stroke="none" d="
M61.231812,112.857170 
	C61.168373,112.679871 61.329655,112.386642 61.726700,111.988876 
	C61.793816,112.169968 61.625172,112.455605 61.231812,112.857170 
z"></path>
<path fill="#F8FBFB" opacity="1.000000" stroke="none" d="
M95.853348,112.098236 
	C95.893181,112.324448 95.717102,112.624756 95.276917,112.873444 
	C95.151520,112.538475 95.359734,112.321976 95.853348,112.098236 
z"></path>
<path fill="#F4FAFA" opacity="1.000000" stroke="none" d="
M61.846184,109.982315 
	C61.651283,110.012642 61.386375,109.780693 61.046188,109.287964 
	C61.239326,109.258141 61.507751,109.489098 61.846184,109.982315 
z"></path>
<path fill="#F8FBFB" opacity="1.000000" stroke="none" d="
M98.842987,110.094284 
	C98.884865,110.322472 98.714027,110.625717 98.278847,110.870819 
	C98.151337,110.532715 98.356598,110.318268 98.842987,110.094284 
z"></path>
<path fill="#F8FBFB" opacity="1.000000" stroke="none" d="
M107.155838,92.342339 
	C107.031204,92.215179 107.489449,92.027153 107.729263,91.965363 
	C107.739540,92.092216 107.510002,92.280853 107.155838,92.342339 
z"></path>
<path fill="#F8FBFB" opacity="1.000000" stroke="none" d="
M84.886215,117.102951 
	C84.917221,117.327774 84.728561,117.617577 84.278290,117.851624 
	C84.164551,117.515404 84.381180,117.306091 84.886215,117.102951 
z"></path>
<path fill="#F8FBFB" opacity="1.000000" stroke="none" d="
M81.995735,118.138496 
	C82.015251,118.368866 81.791328,118.647133 81.290909,118.875580 
	C81.184334,118.524872 81.430290,118.311752 81.995735,118.138496 
z"></path>
<path fill="#F8FBFB" opacity="1.000000" stroke="none" d="
M41.146633,119.410034 
	C41.395641,119.049858 41.677868,119.144821 41.949974,119.753090 
	C41.739738,119.930756 41.486404,119.797012 41.146633,119.410034 
z"></path>
<path fill="#F8FBFB" opacity="1.000000" stroke="none" d="
M93.167221,119.916176 
	C93.135056,119.708359 93.309052,119.429489 93.732140,119.192734 
	C93.842171,119.501587 93.639557,119.705009 93.167221,119.916176 
z"></path>
<path fill="#F8FBFB" opacity="1.000000" stroke="none" d="
M43.145821,120.401215 
	C43.302345,120.316780 43.584942,120.410118 43.950466,120.742599 
	C43.738205,120.925674 43.484375,120.791420 43.145821,120.401215 
z"></path>
<path fill="#F4FAFA" opacity="1.000000" stroke="none" d="
M73.908875,120.109566 
	C73.937805,120.329460 73.739342,120.606560 73.277557,120.844894 
	C73.163780,120.516930 73.386192,120.303810 73.908875,120.109566 
z"></path>
<path fill="#F8FBFB" opacity="1.000000" stroke="none" d="
M12.121544,92.145622 
	C12.312647,92.099922 12.598404,92.286285 12.938475,92.728867 
	C12.733925,92.782608 12.475062,92.580154 12.121544,92.145622 
z"></path>
<path fill="#F8FBFB" opacity="1.000000" stroke="none" d="
M21.156141,102.204727 
	C21.376608,102.065292 21.735958,102.158234 22.193501,102.513184 
	C21.959469,102.662498 21.627249,102.549805 21.156141,102.204727 
z"></path>
<path fill="#F8FBFB" opacity="1.000000" stroke="none" d="
M119.367592,95.855202 
	C119.273323,95.684265 119.366211,95.381210 119.714661,94.998825 
	C119.917198,95.231560 119.778709,95.499420 119.367592,95.855202 
z"></path>
<path fill="#F8FBFB" opacity="1.000000" stroke="none" d="
M15.125409,96.187683 
	C15.309837,96.129723 15.601411,96.296974 15.970836,96.709511 
	C15.709438,96.875359 15.437394,96.694725 15.125409,96.187683 
z"></path>
<path fill="#F8FBFB" opacity="1.000000" stroke="none" d="
M102.441002,96.834030 
	C102.133705,96.609550 102.224899,96.336273 102.762466,96.051346 
	C102.932396,96.249321 102.809280,96.497841 102.441002,96.834030 
z"></path>
<path fill="#F8FBFB" opacity="1.000000" stroke="none" d="
M16.135048,97.175102 
	C16.319405,97.127350 16.593204,97.303383 16.922966,97.725143 
	C16.657330,97.872681 16.405851,97.682022 16.135048,97.175102 
z"></path>
<path fill="#F8FBFB" opacity="1.000000" stroke="none" d="
M17.120140,98.234047 
	C17.377403,98.052864 17.642891,98.215164 17.872181,98.749680 
	C17.622772,98.882988 17.386898,98.701530 17.120140,98.234047 
z"></path>
<path fill="#F8FBFB" opacity="1.000000" stroke="none" d="
M19.116392,100.285202 
	C19.366261,100.066177 19.645390,100.210258 19.916937,100.749344 
	C19.684753,100.899628 19.430187,100.734291 19.116392,100.285202 
z"></path>
<path fill="#F8FBFB" opacity="1.000000" stroke="none" d="
M14.118801,95.191597 
	C14.298358,95.139954 14.586658,95.313980 14.956009,95.734810 
	C14.767221,95.793503 14.497383,95.605385 14.118801,95.191597 
z"></path>
<path fill="#F8FBFB" opacity="1.000000" stroke="none" d="
M20.698330,101.059082 
	C20.925291,101.075089 20.967754,101.529701 20.997974,101.755920 
	C20.701279,101.892975 20.436342,101.712730 20.125671,101.222908 
	C20.017960,101.004402 20.471367,101.043076 20.698330,101.059082 
z"></path>
<path fill="#F8FBFB" opacity="1.000000" stroke="none" d="
M108.159668,109.893829 
	C108.109604,109.677879 108.279984,109.376045 108.720978,109.088455 
	C108.864784,109.404556 108.660950,109.639641 108.159668,109.893829 
z"></path>
<path fill="#F8FBFB" opacity="1.000000" stroke="none" d="
M87.903496,102.846939 
	C87.698730,102.882782 87.420624,102.704605 87.162888,102.272125 
	C87.466164,102.152122 87.681786,102.357155 87.903496,102.846939 
z"></path>
<path fill="#F8FBFB" opacity="1.000000" stroke="none" d="
M13.601275,93.098358 
	C13.797193,93.127792 13.796513,93.545258 13.740454,93.746094 
	C13.443415,93.817619 13.261536,93.630775 13.076065,93.198746 
	C13.013371,93.011086 13.405358,93.068924 13.601275,93.098358 
z"></path>
<path fill="#F8FBFB" opacity="1.000000" stroke="none" d="
M116.658524,92.138405 
	C116.747322,92.314919 116.644279,92.617302 116.286331,92.989044 
	C116.090088,92.746307 116.235168,92.481606 116.658524,92.138405 
z"></path>
<path fill="#F8FBFB" opacity="1.000000" stroke="none" d="
M110.298065,107.891754 
	C110.223557,107.685997 110.339149,107.379898 110.723457,107.090469 
	C110.893105,107.386017 110.725098,107.614105 110.298065,107.891754 
z"></path>
<path fill="#F4FAFA" opacity="1.000000" stroke="none" d="
M60.870667,108.802124 
	C60.691879,108.851631 60.411697,108.674789 60.052200,108.253891 
	C60.304779,108.105011 60.570240,108.293663 60.870667,108.802124 
z"></path>
<path fill="#F8FBFB" opacity="1.000000" stroke="none" d="
M101.877785,108.102409 
	C101.913147,108.330956 101.728806,108.627983 101.279373,108.868073 
	C101.159149,108.527588 101.373749,108.314171 101.877785,108.102409 
z"></path>
<path fill="#ECFBF9" opacity="1.000000" stroke="none" d="
M55.064011,68.444183 
	C51.321117,71.923019 47.744846,75.121735 44.002213,78.623772 
	C39.930702,79.278870 35.618423,80.868843 32.198677,79.744385 
	C22.883556,76.681488 20.805790,71.168488 24.037720,60.810795 
	C28.248013,47.317650 45.574497,33.949894 58.148033,33.998928 
	C64.146751,34.022327 68.798775,36.601021 71.661514,41.634289 
	C74.199371,46.096340 72.421692,52.228920 67.722931,56.811951 
	C63.697540,60.738197 59.405014,64.390564 55.064011,68.444183 
M33.918655,64.462769 
	C33.619675,64.364670 33.320690,64.266571 32.354843,63.847092 
	C30.631601,63.391392 28.918612,62.743469 27.176025,62.650551 
	C26.847826,62.633049 25.748337,65.212761 26.160839,65.912041 
	C26.803308,67.001167 28.409441,67.554070 29.658888,68.240036 
	C30.339201,68.613541 31.126116,68.792877 31.631676,69.768333 
	C30.438633,70.868820 28.034639,72.515869 28.245371,72.982758 
	C29.837896,76.511093 32.900776,77.543541 36.327911,76.876282 
	C36.558773,75.478165 36.752579,74.304474 37.265091,73.771439 
	C39.036839,75.823257 41.189743,77.392548 43.342159,74.819626 
	C43.820183,74.248222 41.820984,71.669868 41.061165,69.971397 
	C40.647583,69.046906 40.441559,68.029564 40.932186,67.004837 
	C42.464016,67.492012 44.022137,67.910202 45.521866,68.481628 
	C48.134056,69.476921 50.312340,69.540627 51.314369,66.510300 
	C49.985695,64.481476 48.800426,62.671635 47.615158,60.861790 
	C47.918808,60.463638 48.222458,60.065487 48.526108,59.667339 
	C50.032341,60.281754 51.505077,61.270554 53.053883,61.409119 
	C54.724285,61.558567 56.465881,60.912292 58.176426,60.613152 
	C57.678085,59.137714 57.371590,57.556236 56.630276,56.215099 
	C55.801945,54.716549 54.579109,53.436062 53.527966,52.060673 
	C54.028790,51.532219 54.529613,51.003769 55.030437,50.475315 
	C56.688168,51.494720 58.234871,52.855366 60.033836,53.440685 
	C61.958466,54.066891 64.999939,54.921768 66.012268,53.994232 
	C68.883148,51.363811 65.173988,50.471195 63.893970,48.459923 
	C63.608406,48.271294 63.322838,48.082664 62.970383,47.425900 
	C62.970383,47.425900 62.823807,46.976295 63.123936,46.406841 
	C64.081505,46.554474 65.039078,46.702106 66.620377,47.163620 
	C67.401451,46.117985 68.904770,45.017853 68.830742,44.036736 
	C68.590416,40.851395 66.516006,39.583019 62.324329,39.948574 
	C61.795666,39.655376 61.267002,39.362175 60.559643,38.426884 
	C58.856472,37.091747 57.008976,36.349850 55.882740,38.828297 
	C55.535297,39.592888 56.560684,40.981319 57.106781,42.573193 
	C57.391399,42.743214 57.676018,42.913231 58.067528,43.572033 
	C58.120224,43.730270 58.172920,43.888504 57.844864,44.660416 
	C56.905251,44.739841 55.965637,44.819267 54.739586,44.252701 
	C53.142361,42.505493 51.545139,40.758289 49.947914,39.011082 
	C48.701973,40.205887 47.456028,41.400688 45.897224,43.093559 
	C44.209751,43.277679 42.522278,43.461800 40.607254,43.670746 
	C41.572365,46.802471 46.794155,45.707050 43.394844,49.795990 
	C42.680576,49.383270 41.836147,49.099796 41.275169,48.534859 
	C39.146053,46.390713 36.699959,46.395599 35.745701,49.035885 
	C35.198067,50.551094 36.609051,53.047092 37.666096,54.779522 
	C38.454472,56.071629 40.088539,56.847740 41.345993,57.853638 
	C41.011982,58.237400 40.677971,58.621159 40.343960,59.004921 
	C38.238007,57.851532 36.207062,56.519867 34.005543,55.593616 
	C31.685829,54.617641 29.495989,54.608055 29.248146,58.671055 
	C31.145487,59.826366 33.042828,60.981674 35.230640,62.754894 
	C35.402714,63.415916 35.574791,64.076942 35.746864,64.737968 
	C35.191635,64.796677 34.636410,64.855392 34.051228,64.955994 
	C34.051228,64.955994 34.100281,64.943825 33.918655,64.462769 
z"></path>
<path fill="#ECFBF9" opacity="1.000000" stroke="none" d="
M45.690159,79.442917 
	C45.717510,79.464081 45.628361,79.409416 45.654343,79.382126 
	C45.680328,79.354843 45.662807,79.421753 45.690159,79.442917 
z"></path>
<path fill="#2C897C" opacity="1.000000" stroke="none" d="
M92.681168,86.025482 
	C97.034401,86.663025 101.466530,84.576057 104.855095,88.637131 
	C99.850578,88.637131 94.846062,88.637131 88.912048,88.637131 
	C90.300659,87.555389 91.273727,86.797363 92.681168,86.025482 
z"></path>
<path fill="#0C9682" opacity="1.000000" stroke="none" d="
M58.225613,44.046741 
	C58.172920,43.888504 58.120224,43.730270 58.016197,43.087997 
	C57.629078,42.430676 57.293285,42.257393 56.957493,42.084110 
	C56.560684,40.981319 55.535297,39.592888 55.882740,38.828297 
	C57.008976,36.349850 58.856472,37.091747 60.444878,38.971199 
	C60.446491,40.199982 60.562874,40.884453 60.679256,41.568924 
	C61.439346,40.999344 62.199432,40.429764 62.959518,39.860184 
	C66.516006,39.583019 68.590416,40.851395 68.830742,44.036736 
	C68.904770,45.017853 67.401451,46.117985 66.266663,46.676216 
	C64.645576,45.327374 63.378212,44.465927 62.110847,43.604485 
	C62.348499,44.728420 62.586155,45.852360 62.823807,46.976295 
	C62.823807,46.976295 62.970383,47.425900 63.075623,47.884480 
	C63.331287,48.633900 63.555096,48.848068 63.852283,48.985569 
	C65.173988,50.471195 68.883148,51.363811 66.012268,53.994232 
	C64.999939,54.921768 61.958466,54.066891 60.033836,53.440685 
	C58.234871,52.855366 56.688168,51.494720 55.030437,50.475315 
	C54.529613,51.003769 54.028790,51.532219 53.527966,52.060673 
	C54.579109,53.436062 55.801945,54.716549 56.630276,56.215099 
	C57.371590,57.556236 57.678085,59.137714 58.176422,60.613152 
	C56.465881,60.912292 54.724285,61.558567 53.053883,61.409119 
	C51.505077,61.270554 50.032341,60.281754 48.526108,59.667339 
	C48.222458,60.065487 47.918808,60.463638 47.615158,60.861790 
	C48.800426,62.671635 49.985695,64.481476 51.314369,66.510300 
	C50.312340,69.540627 48.134056,69.476921 45.521866,68.481628 
	C44.022137,67.910202 42.464016,67.492012 40.250031,67.008003 
	C39.376656,66.995255 39.185440,66.979340 38.949097,66.587845 
	C37.627964,64.461655 39.083096,60.669403 34.814232,60.737114 
	C32.803562,59.642834 30.991783,58.818836 29.180004,57.994835 
	C29.495989,54.608055 31.685829,54.617641 34.005543,55.593616 
	C36.207062,56.519867 38.238007,57.851532 40.343960,59.004921 
	C40.677971,58.621159 41.011982,58.237400 41.345993,57.853638 
	C40.088539,56.847740 38.454472,56.071629 37.666096,54.779522 
	C36.609051,53.047092 35.198067,50.551094 35.745701,49.035885 
	C36.699959,46.395599 39.146053,46.390713 41.275169,48.534859 
	C41.836147,49.099796 42.680576,49.383270 43.753044,49.750244 
	C44.111248,49.704502 44.123814,49.727341 44.046825,49.919830 
	C44.012215,50.397064 44.078575,50.676121 44.132416,51.209488 
	C44.726101,51.617722 45.356289,51.765968 46.158707,52.020897 
	C46.330940,52.127583 46.735962,52.115955 46.871616,52.314579 
	C47.361954,52.352936 47.716640,52.192665 48.311363,52.015343 
	C48.551399,51.998295 49.009541,51.850872 49.274025,51.874653 
	C49.734825,51.614731 49.931141,51.331028 50.430676,50.872066 
	C50.516998,49.450714 50.300106,48.204624 49.962349,46.655090 
	C48.631020,45.099598 47.420551,43.847542 46.210083,42.595490 
	C47.456028,41.400688 48.701973,40.205887 49.947914,39.011082 
	C51.545139,40.758289 53.142361,42.505493 55.004322,44.870888 
	C56.161572,45.784603 57.054081,46.080128 57.946594,46.375652 
	C58.039600,45.599350 58.132607,44.823044 58.225613,44.046741 
z"></path>
<path fill="#139583" opacity="1.000000" stroke="none" d="
M35.013123,61.007397 
	C39.083096,60.669403 37.627964,64.461655 38.655441,66.641937 
	C37.920063,69.091324 37.433224,71.111053 36.946381,73.130775 
	C36.752579,74.304474 36.558773,75.478165 36.327911,76.876282 
	C32.900776,77.543541 29.837896,76.511093 28.245371,72.982758 
	C28.034639,72.515869 30.438633,70.868820 32.119781,69.336670 
	C33.098988,67.574699 33.590084,66.244400 34.081181,64.914108 
	C34.636410,64.855392 35.191635,64.796677 35.746864,64.737961 
	C35.574791,64.076942 35.402714,63.415916 35.105560,62.163704 
	C34.991360,61.384140 35.002239,61.195770 35.013123,61.007397 
z"></path>
<path fill="#109481" opacity="1.000000" stroke="none" d="
M34.066204,64.935043 
	C33.590084,66.244400 33.098988,67.574699 32.236420,68.982391 
	C31.126116,68.792877 30.339201,68.613541 29.658888,68.240036 
	C28.409441,67.554070 26.803308,67.001167 26.160839,65.912041 
	C25.748337,65.212761 26.847826,62.633049 27.176025,62.650551 
	C28.918612,62.743469 30.631601,63.391392 32.819233,64.197235 
	C33.509846,64.774246 33.782066,64.906395 34.100281,64.943825 
	C34.100281,64.943825 34.051228,64.955994 34.066204,64.935043 
z"></path>
<path fill="#109481" opacity="1.000000" stroke="none" d="
M37.105736,73.451111 
	C37.433224,71.111053 37.920063,69.091324 38.700562,67.017517 
	C39.185440,66.979340 39.376656,66.995255 39.854900,67.032639 
	C40.441559,68.029564 40.647583,69.046906 41.061165,69.971397 
	C41.820984,71.669868 43.820183,74.248222 43.342159,74.819626 
	C41.189743,77.392548 39.036839,75.823257 37.105736,73.451111 
z"></path>
<path fill="#DEF9F4" opacity="1.000000" stroke="none" d="
M46.053654,42.844524 
	C47.420551,43.847542 48.631020,45.099598 49.685966,46.869354 
	C48.944633,50.977333 46.013344,49.148975 44.123814,49.727341 
	C44.123814,49.727341 44.111248,49.704502 44.101616,49.719505 
	C46.794155,45.707050 41.572365,46.802471 40.607254,43.670746 
	C42.522278,43.461800 44.209751,43.277679 46.053654,42.844524 
z"></path>
<path fill="#0E937F" opacity="1.000000" stroke="none" d="
M62.973869,46.691566 
	C62.586155,45.852360 62.348499,44.728420 62.110847,43.604485 
	C63.378212,44.465927 64.645576,45.327374 65.954796,46.519279 
	C65.039078,46.702106 64.081505,46.554474 62.973869,46.691566 
z"></path>
<path fill="#109481" opacity="1.000000" stroke="none" d="
M34.814232,60.737114 
	C35.002239,61.195770 34.991360,61.384140 34.960323,61.854748 
	C33.042828,60.981674 31.145487,59.826366 29.214075,58.332947 
	C30.991783,58.818836 32.803562,59.642834 34.814232,60.737114 
z"></path>
<path fill="#0E937F" opacity="1.000000" stroke="none" d="
M58.035240,44.353577 
	C58.132607,44.823044 58.039600,45.599350 57.946594,46.375652 
	C57.054081,46.080128 56.161572,45.784603 55.147541,45.193886 
	C55.965637,44.819267 56.905251,44.739841 58.035240,44.353577 
z"></path>
<path fill="#0E937F" opacity="1.000000" stroke="none" d="
M62.641922,39.904381 
	C62.199432,40.429764 61.439346,40.999344 60.679256,41.568924 
	C60.562874,40.884453 60.446491,40.199982 60.534225,39.292244 
	C61.267002,39.362175 61.795666,39.655376 62.641922,39.904381 
z"></path>
<path fill="#0E937F" opacity="1.000000" stroke="none" d="
M57.032135,42.328651 
	C57.293285,42.257393 57.629078,42.430676 57.962753,42.843605 
	C57.676018,42.913231 57.391399,42.743214 57.032135,42.328651 
z"></path>
<path fill="#0E937F" opacity="1.000000" stroke="none" d="
M63.873127,48.722748 
	C63.555096,48.848068 63.331287,48.633900 63.109062,48.118549 
	C63.322838,48.082664 63.608406,48.271294 63.873127,48.722748 
z"></path>
<path fill="#139583" opacity="1.000000" stroke="none" d="
M34.009468,64.703293 
	C33.782066,64.906395 33.509846,64.774246 33.152664,64.357925 
	C33.320690,64.266571 33.619675,64.364670 34.009468,64.703293 
z"></path>
<path fill="#ECFBF9" opacity="1.000000" stroke="none" d="
M44.046825,49.919830 
	C46.013344,49.148975 48.944633,50.977333 49.806824,47.172794 
	C50.300106,48.204624 50.516998,49.450714 50.200794,50.936897 
	C49.373280,51.328323 49.153896,51.552956 49.009541,51.850872 
	C49.009541,51.850872 48.551399,51.998295 47.976326,52.016975 
	C47.179485,52.062428 46.957722,52.089191 46.735962,52.115955 
	C46.735962,52.115955 46.330940,52.127583 45.919434,51.757027 
	C45.061596,51.240814 44.615257,51.095154 44.168922,50.949497 
	C44.078575,50.676121 44.012215,50.397064 44.046825,49.919830 
z"></path>
<path fill="#DEF9F4" opacity="1.000000" stroke="none" d="
M44.132416,51.209488 
	C44.615257,51.095154 45.061596,51.240814 45.747204,51.650345 
	C45.356289,51.765968 44.726101,51.617722 44.132416,51.209488 
z"></path>
<path fill="#DEF9F4" opacity="1.000000" stroke="none" d="
M46.871616,52.314579 
	C46.957722,52.089191 47.179485,52.062428 47.736290,52.034027 
	C47.716640,52.192665 47.361954,52.352936 46.871616,52.314579 
z"></path>
<path fill="#DEF9F4" opacity="1.000000" stroke="none" d="
M49.274025,51.874653 
	C49.153896,51.552956 49.373280,51.328323 49.897575,51.112152 
	C49.931141,51.331028 49.734825,51.614731 49.274025,51.874653 
z"></path>
</svg>
